# xmcd
#
# Track frame offsets: 
#        150
#        29770
#        58262
#        73871
#        97655
#        127062
#        149013
#        176562
#        209177
#        224882
#
# Disc length: 3419 seconds
#
# Revision: 3
# Processed by: cddbd v1.5.2PL0 Copyright (c) Steve Scherf et al.
# Submitted via: ExactAudioCopy v1.0b3
#
DISCID=b30d590a
DTITLE=Tim 'Too Slim' Langford - Goin' Public
DYEAR=2002
DGENRE=Country Blues, Blues Rock, Southern Rock , Modern Electric
TTITLE0=What Is Wrong
TTITLE1=The Shinin' Moon
TTITLE2=My Babe
TTITLE3=In The Pines
TTITLE4=Highway 51
TTITLE5=Come On In My Kitchen
TTITLE6=Crawlin King Snake
TTITLE7=Jesus Just Left Chicago
TTITLE8=Crazy Mixed Up World
TTITLE9=Swamp Opera
EXTD=
EXTT0=
EXTT1=
EXTT2=
EXTT3=
EXTT4=
EXTT5=
EXTT6=
EXTT7=
EXTT8=
EXTT9=
PLAYORDER=
